<svg version="1" xmlns="http://www.w3.org/2000/svg" width="2250.667" height="2250.667" viewBox="0 0 1688.000000 1688.000000"><path d="M385 266.7c-7.1.7-21.7 3.5-28.5 5.6-3.8 1.2-7.2 2.2-7.5 2.2-.3.1-1.4.5-2.5 1-1.1.4-4 1.6-6.5 2.5-31.5 12.2-65.8 44.8-79.4 75.5-.9 2.2-2.1 4.9-2.6 6-2.3 5.2-3.9 9.8-6.3 18.1-2.4 8.1-3.2 12.5-4.2 22.4-.2 1.9-.6 6.6-1.1 10.5-1 9.5-.8 14.7 1.1 29.5.3 1.9.7 5.1.9 7 1.2 8.8 2 12.2 5.1 21.7 13.2 39.8 42.3 72.6 80 90.4 13.4 6.2 24.8 10 37.3 12.4 1.3.2 3.1.6 4 .9 4.6 1.4 31.9 1.7 174.5 2.1 85.2.2 156.7.7 159 1 4 .6 21.1 3.3 25.2 4.1 10.9 2 36.1 9.4 46 13.5 1.7.7 3.5 1.3 4 1.4 5.5 1.4 35 16.2 47.3 23.8 4.5 2.9 9.7 6.1 11.5 7.2 9.9 6 36.2 26.7 48.6 38 30 27.8 56.9 59.2 82.8 96.7 7.7 11 28.3 43.4 28.3 44.3 0 .2 2.3 4.4 5.2 9.2 5.9 10 9.8 17.3 19.8 37.1 17 33.8 29 62.3 44.1 105 1.2 3.4 2.4 6 2.7 5.7.6-.5.3-445.3-.2-468-.3-11.3-1-19.6-2.1-24.5-.1-.3-.7-3.2-1.4-6.5s-1.6-7.1-2-8.5c-.5-1.4-1.4-5-2.1-8-2.6-11.8-10.8-32.9-18.5-47.5-4.7-9.1-17-28.1-22.2-34.4-14.1-17.3-25.4-28.6-40.8-41.1-4.4-3.6-8.2-6.8-8.5-7.1-.3-.3-6.3-4.4-13.5-9.1-33.9-22.4-67.4-35.6-100-39.5-4.4-.5-471.9-1.1-477.5-.6zM1269.5 267.7c-1.1.2-5.8 1.1-10.5 2-18.7 3.5-37.8 11.2-54.2 21.9-11.5 7.5-12.9 8.6-23.5 18.8-22.4 21.5-37.7 48.9-43.9 78.6-.2 1.4-.7 3.2-.9 4-2 7.1-2.8 40.6-1.2 50 2 12.2 3.8 19.5 7.3 29.9 4.1 11.8 12.5 28.8 17.6 35.6 12.1 15.9 20.5 25 30.6 33.3 22.1 18.2 50.8 30.5 78.2 33.8 17.2 2 40.1.7 55.8-3.2 45.2-11.1 82.6-41.5 103-83.6 3.8-7.6 7.7-17.5 8.7-21.8l2-8c1-3.5 1.9-7.3 2-8.5.2-1.1.7-4.5 1.1-7.5 1.7-10.4 1-39.6-1-49.5-5.3-25.7-15.3-48.1-29.8-66.5-16.7-21.2-39.8-39-63.4-48.7-5.7-2.4-20.4-7.2-23.7-7.7-1.7-.3-4.3-.8-5.7-1.1-1.4-.3-4.1-.8-6-1.1-4.2-.8-39.7-1.4-42.5-.7z"/><path d="M740.8 598.8c6.9 6.8 15.2 17.8 18.4 24.5 5.1 10.6 5.7 12.5 6.6 20 .5 3.8 1 144.4 1.1 312.5.2 305.3.3 326.7 1.6 335.2 2.1 14.4 8.1 33.4 15.1 47.4 14.1 28.2 40.3 54.1 68.9 68.2 7.9 3.9 20.1 8.8 24.5 9.9 21.2 5.2 31.2 6.5 49.1 6 7-.1 13.1-.5 13.5-.8.5-.2 3.3-.7 6.2-1.1 15-1.8 36.5-9.6 53.1-19.4 14-8.3 30.2-22 39.7-33.8 2.1-2.7 4.2-5.1 4.5-5.4 1.8-1.6 9.5-14 14.2-23.1 4.8-9.2 10.8-24.6 12.1-31.1.2-1.3 1.2-5.7 2.1-9.8.9-4.1 1.9-12.2 2.2-18 .9-14.6.8-250.6-.1-255.5-1.8-9.8-3.8-19.2-4.7-22.1-.5-1.7-1.2-4.1-1.4-5.3-.3-1.1-.7-3.1-1-4.2-2.1-9.7-12.5-41.6-20.2-61.9-7.7-20.2-19.8-47.7-31-70-15.7-31.4-21.4-41.8-35.9-65-27.3-44-53.9-77.7-86.9-110.1-44.1-43.4-90.3-71.8-140.6-86.4-6.7-1.9-12.5-3.5-13-3.5s.3 1.2 1.9 2.8z"/></svg>