<svg width="2075" height="184" viewBox="0 0 2075 184" fill="none" xmlns="http://www.w3.org/2000/svg">
<path d="M19.7222 0.0805375L47.8967 0L48.0888 68.0312L19.9144 68.1118L19.7222 0.0805375Z" fill="url(#paint0_linear_21_850)"/>
<path d="M142 34.0158C142 52.8021 126.863 68.0315 108.19 68.0315C89.518 68.0315 74.381 52.8021 74.381 34.0158C74.381 15.2294 89.518 4.95951e-08 108.19 4.95951e-08C126.863 4.95951e-08 142 15.2294 142 34.0158Z" fill="url(#paint1_linear_21_850)"/>
<path d="M0 75.9685H67.619V104.315H4.77131e-09L0 75.9685Z" fill="url(#paint2_linear_21_850)"/>
<path d="M39.4444 75.9685H67.619V144H39.4444V75.9685Z" fill="url(#paint3_linear_21_850)"/>
<path d="M74.381 75.9685H142V104.315H74.381V75.9685Z" fill="url(#paint4_linear_21_850)"/>
<path d="M113.825 75.9685H142V144H113.825V75.9685Z" fill="url(#paint5_linear_21_850)"/>
<path d="M263.95 135.162C260.67 137.589 256.606 139.446 251.757 140.731C247.051 141.873 242.131 142.445 236.997 142.445C223.164 142.445 212.539 138.946 205.124 131.949C197.708 124.951 194 114.67 194 101.104V0H227.371V28.0605H255.821V53.7648H227.371V100.675C227.371 105.53 228.583 109.315 231.007 112.028C233.432 114.598 236.926 115.884 241.489 115.884C246.623 115.884 251.186 114.456 255.18 111.6L263.95 135.162Z" fill="#FFDCC6"/>
<path d="M337.217 115.669C343.207 115.669 348.484 114.813 353.047 113.099C357.753 111.243 362.103 108.386 366.096 104.531L383.851 123.809C373.012 136.233 357.183 142.445 336.362 142.445C323.384 142.445 311.904 139.946 301.922 134.948C291.939 129.807 284.238 122.738 278.819 113.742C273.4 104.745 270.69 94.5347 270.69 83.1106C270.69 71.8293 273.328 61.6903 278.605 52.6938C284.024 43.5545 291.368 36.4858 300.638 31.4878C310.05 26.3469 320.603 23.7765 332.297 23.7765C343.278 23.7765 353.261 26.1327 362.245 30.8452C371.23 35.4148 378.36 42.1265 383.637 50.9802C389.056 59.6911 391.766 70.0442 391.766 82.0396L306.628 98.5332C309.052 104.245 312.831 108.529 317.965 111.385C323.242 114.241 329.659 115.669 337.217 115.669ZM332.297 49.0524C323.883 49.0524 317.038 51.7656 311.762 57.1921C306.485 62.6185 303.704 70.1156 303.419 79.6833L359.465 68.759C357.896 62.7613 354.687 57.9775 349.838 54.4074C344.99 50.8374 339.143 49.0524 332.297 49.0524Z" fill="#FFDCC6"/>
<path d="M484.147 23.7765C498.408 23.7765 509.888 28.0605 518.587 36.6286C527.429 45.1967 531.849 57.9061 531.849 74.7567V140.731H498.479V79.8976C498.479 70.7582 496.482 63.9752 492.489 59.5483C488.496 54.9787 482.72 52.6938 475.162 52.6938C466.748 52.6938 460.046 55.3357 455.054 60.6193C450.063 65.7602 447.567 73.4715 447.567 83.7532V140.731H414.197V25.4901H446.07V38.9849C450.491 34.1296 455.981 30.4168 462.541 27.8463C469.101 25.1331 476.303 23.7765 484.147 23.7765Z" fill="#FFDCC6"/>
<path d="M600.817 142.445C591.262 142.445 581.921 141.302 572.794 139.017C563.667 136.59 556.394 133.591 550.975 130.021L562.098 106.03C567.232 109.315 573.436 112.028 580.709 114.17C587.982 116.169 595.112 117.169 602.1 117.169C616.219 117.169 623.278 113.67 623.278 106.673C623.278 103.388 621.353 101.032 617.502 99.6042C613.652 98.1762 607.733 96.9624 599.747 95.9627C590.335 94.5347 582.563 92.8925 576.431 91.0361C570.298 89.1797 564.951 85.8952 560.387 81.1828C555.966 76.4703 553.756 69.7586 553.756 61.0477C553.756 53.7648 555.823 47.3388 559.959 41.7695C564.237 36.0574 570.37 31.6306 578.356 28.4889C586.485 25.3473 596.039 23.7765 607.02 23.7765C615.149 23.7765 623.207 24.7047 631.193 26.5611C639.321 28.2747 646.024 30.7024 651.301 33.844L640.177 57.6205C630.052 51.9084 619 49.0524 607.02 49.0524C599.89 49.0524 594.542 50.052 590.977 52.0512C587.412 54.0504 585.629 56.6209 585.629 59.7625C585.629 63.3326 587.554 65.8316 591.405 67.2596C595.255 68.6876 601.387 70.0442 609.801 71.3295C619.213 72.9003 626.914 74.6139 632.904 76.4703C638.894 78.1839 644.099 81.397 648.52 86.1094C652.941 90.8219 655.151 97.3908 655.151 105.816C655.151 112.956 653.012 119.311 648.734 124.88C644.455 130.449 638.181 134.805 629.909 137.946C621.78 140.945 612.083 142.445 600.817 142.445Z" fill="#FFDCC6"/>
<path d="M733.711 115.669C739.701 115.669 744.977 114.813 749.541 113.099C754.247 111.243 758.597 108.386 762.59 104.531L780.345 123.809C769.506 136.233 753.677 142.445 732.856 142.445C719.878 142.445 708.398 139.946 698.415 134.948C688.433 129.807 680.732 122.738 675.313 113.742C669.893 104.745 667.184 94.5347 667.184 83.1106C667.184 71.8293 669.822 61.6903 675.099 52.6938C680.518 43.5545 687.862 36.4858 697.132 31.4878C706.544 26.3469 717.097 23.7765 728.791 23.7765C739.772 23.7765 749.755 26.1327 758.739 30.8452C767.724 35.4148 774.854 42.1265 780.131 50.9802C785.55 59.6911 788.259 70.0442 788.259 82.0396L703.121 98.5332C705.546 104.245 709.325 108.529 714.459 111.385C719.735 114.241 726.153 115.669 733.711 115.669ZM728.791 49.0524C720.377 49.0524 713.532 51.7656 708.255 57.1921C702.979 62.6185 700.198 70.1156 699.913 79.6833L755.958 68.759C754.39 62.7613 751.181 57.9775 746.332 54.4074C741.483 50.8374 735.636 49.0524 728.791 49.0524Z" fill="#FFDCC6"/>
<path d="M922.832 25.4901L874.273 140.731H839.833L791.488 25.4901H825.928L857.802 103.888L890.745 25.4901H922.832Z" fill="#FFDCC6"/>
<path d="M991.286 115.669C997.276 115.669 1002.55 114.813 1007.12 113.099C1011.82 111.243 1016.17 108.386 1020.16 104.531L1037.92 123.809C1027.08 136.233 1011.25 142.445 990.43 142.445C977.453 142.445 965.973 139.946 955.99 134.948C946.007 129.807 938.306 122.738 932.887 113.742C927.468 104.745 924.759 94.5347 924.759 83.1106C924.759 71.8293 927.397 61.6903 932.673 52.6938C938.093 43.5545 945.437 36.4858 954.707 31.4878C964.119 26.3469 974.672 23.7765 986.366 23.7765C997.347 23.7765 1007.33 26.1327 1016.31 30.8452C1025.3 35.4148 1032.43 42.1265 1037.71 50.9802C1043.12 59.6911 1045.83 70.0442 1045.83 82.0396L960.696 98.5332C963.121 104.245 966.9 108.529 972.034 111.385C977.31 114.241 983.728 115.669 991.286 115.669ZM986.366 49.0524C977.952 49.0524 971.107 51.7656 965.83 57.1921C960.554 62.6185 957.773 70.1156 957.487 79.6833L1013.53 68.759C1011.96 62.7613 1008.76 57.9775 1003.91 54.4074C999.058 50.8374 993.211 49.0524 986.366 49.0524Z" fill="#FFDCC6"/>
<path d="M1138.22 23.7765C1152.48 23.7765 1163.96 28.0605 1172.66 36.6286C1181.5 45.1967 1185.92 57.9061 1185.92 74.7567V140.731H1152.55V79.8976C1152.55 70.7582 1150.55 63.9752 1146.56 59.5483C1142.56 54.9787 1136.79 52.6938 1129.23 52.6938C1120.82 52.6938 1114.11 55.3357 1109.12 60.6193C1104.13 65.7602 1101.64 73.4715 1101.64 83.7532V140.731H1068.27V25.4901H1100.14V38.9849C1104.56 34.1296 1110.05 30.4168 1116.61 27.8463C1123.17 25.1331 1130.37 23.7765 1138.22 23.7765Z" fill="#FFDCC6"/>
<path d="M1285.48 135.162C1282.2 137.589 1278.13 139.446 1273.28 140.731C1268.58 141.873 1263.66 142.445 1258.52 142.445C1244.69 142.445 1234.06 138.946 1226.65 131.949C1219.23 124.951 1215.53 114.67 1215.53 101.104V0H1248.9V28.0605H1277.35V53.7648H1248.9V100.675C1248.9 105.53 1250.11 109.315 1252.53 112.028C1254.96 114.598 1258.45 115.884 1263.01 115.884C1268.15 115.884 1272.71 114.456 1276.7 111.6L1285.48 135.162Z" fill="#FFDCC6"/>
<path d="M1420.26 25.4901V121.453C1420.26 142.587 1414.92 158.296 1404.22 168.577C1393.53 178.859 1377.98 184 1357.59 184C1346.75 184 1336.48 182.643 1326.78 179.93C1317.23 177.217 1309.17 173.29 1302.61 168.149L1315.87 144.158C1320.72 148.157 1326.64 151.298 1333.63 153.583C1340.62 155.868 1347.68 157.01 1354.81 157.01C1365.93 157.01 1374.06 154.44 1379.19 149.299C1384.33 144.158 1386.89 136.304 1386.89 125.737V121.881C1382.62 126.165 1377.55 129.45 1371.71 131.735C1365.86 134.019 1359.58 135.162 1352.88 135.162C1337.77 135.162 1325.79 130.878 1316.94 122.31C1308.1 113.599 1303.68 100.604 1303.68 83.3248V25.4901H1337.05V78.3981C1337.05 97.1052 1344.82 106.459 1360.37 106.459C1368.35 106.459 1374.77 103.888 1379.62 98.7474C1384.47 93.4637 1386.89 85.681 1386.89 75.3993V25.4901H1420.26Z" fill="#FFDCC6"/>
<path d="M1489.9 142.445C1480.34 142.445 1471 141.302 1461.88 139.017C1452.75 136.59 1445.48 133.591 1440.06 130.021L1451.18 106.03C1456.31 109.315 1462.52 112.028 1469.79 114.17C1477.06 116.169 1484.19 117.169 1491.18 117.169C1505.3 117.169 1512.36 113.67 1512.36 106.673C1512.36 103.388 1510.43 101.032 1506.58 99.6042C1502.73 98.1762 1496.82 96.9624 1488.83 95.9627C1479.42 94.5347 1471.64 92.8925 1465.51 91.0361C1459.38 89.1797 1454.03 85.8952 1449.47 81.1828C1445.05 76.4703 1442.84 69.7586 1442.84 61.0477C1442.84 53.7648 1444.91 47.3388 1449.04 41.7695C1453.32 36.0574 1459.45 31.6306 1467.44 28.4889C1475.57 25.3473 1485.12 23.7765 1496.1 23.7765C1504.23 23.7765 1512.29 24.7047 1520.27 26.5611C1528.4 28.2747 1535.11 30.7024 1540.38 33.844L1529.26 57.6205C1519.13 51.9084 1508.08 49.0524 1496.1 49.0524C1488.97 49.0524 1483.62 50.052 1480.06 52.0512C1476.49 54.0504 1474.71 56.6209 1474.71 59.7625C1474.71 63.3326 1476.64 65.8316 1480.49 67.2596C1484.34 68.6876 1490.47 70.0442 1498.88 71.3295C1508.3 72.9003 1516 74.6139 1521.99 76.4703C1527.98 78.1839 1533.18 81.397 1537.6 86.1094C1542.02 90.8219 1544.23 97.3908 1544.23 105.816C1544.23 112.956 1542.09 119.311 1537.82 124.88C1533.54 130.449 1527.26 134.805 1518.99 137.946C1510.86 140.945 1501.16 142.445 1489.9 142.445Z" fill="#FFDCC6"/>
<path d="M1622.79 115.669C1628.78 115.669 1634.06 114.813 1638.62 113.099C1643.33 111.243 1647.68 108.386 1651.67 104.531L1669.43 123.809C1658.59 136.233 1642.76 142.445 1621.94 142.445C1608.96 142.445 1597.48 139.946 1587.5 134.948C1577.51 129.807 1569.81 122.738 1564.39 113.742C1558.98 104.745 1556.27 94.5347 1556.27 83.1106C1556.27 71.8293 1558.9 61.6903 1564.18 52.6938C1569.6 43.5545 1576.94 36.4858 1586.21 31.4878C1595.63 26.3469 1606.18 23.7765 1617.87 23.7765C1628.85 23.7765 1638.84 26.1327 1647.82 30.8452C1656.81 35.4148 1663.94 42.1265 1669.21 50.9802C1674.63 59.6911 1677.34 70.0442 1677.34 82.0396L1592.2 98.5332C1594.63 104.245 1598.41 108.529 1603.54 111.385C1608.82 114.241 1615.23 115.669 1622.79 115.669ZM1617.87 49.0524C1609.46 49.0524 1602.61 51.7656 1597.34 57.1921C1592.06 62.6185 1589.28 70.1156 1588.99 79.6833L1645.04 68.759C1643.47 62.7613 1640.26 57.9775 1635.41 54.4074C1630.57 50.8374 1624.72 49.0524 1617.87 49.0524Z" fill="#FFDCC6"/>
<path d="M1811.91 25.4901L1763.35 140.731H1728.91L1680.57 25.4901H1715.01L1746.88 103.888L1779.83 25.4901H1811.91Z" fill="#FFDCC6"/>
<path d="M1880.37 115.669C1886.36 115.669 1891.63 114.813 1896.2 113.099C1900.9 111.243 1905.25 108.386 1909.25 104.531L1927 123.809C1916.16 136.233 1900.33 142.445 1879.51 142.445C1866.53 142.445 1855.05 139.946 1845.07 134.948C1835.09 129.807 1827.39 122.738 1821.97 113.742C1816.55 104.745 1813.84 94.5347 1813.84 83.1106C1813.84 71.8293 1816.48 61.6903 1821.76 52.6938C1827.17 43.5545 1834.52 36.4858 1843.79 31.4878C1853.2 26.3469 1863.75 23.7765 1875.45 23.7765C1886.43 23.7765 1896.41 26.1327 1905.4 30.8452C1914.38 35.4148 1921.51 42.1265 1926.79 50.9802C1932.21 59.6911 1934.92 70.0442 1934.92 82.0396L1849.78 98.5332C1852.2 104.245 1855.98 108.529 1861.12 111.385C1866.39 114.241 1872.81 115.669 1880.37 115.669ZM1875.45 49.0524C1867.03 49.0524 1860.19 51.7656 1854.91 57.1921C1849.64 62.6185 1846.85 70.1156 1846.57 79.6833L1902.61 68.759C1901.05 62.7613 1897.84 57.9775 1892.99 54.4074C1888.14 50.8374 1882.29 49.0524 1875.45 49.0524Z" fill="#FFDCC6"/>
<path d="M2027.3 23.7765C2041.56 23.7765 2053.04 28.0605 2061.74 36.6286C2070.58 45.1967 2075 57.9061 2075 74.7567V140.731H2041.63V79.8976C2041.63 70.7582 2039.63 63.9752 2035.64 59.5483C2031.65 54.9787 2025.87 52.6938 2018.31 52.6938C2009.9 52.6938 2003.2 55.3357 1998.2 60.6193C1993.21 65.7602 1990.72 73.4715 1990.72 83.7532V140.731H1957.35V25.4901H1989.22V38.9849C1993.64 34.1296 1999.13 30.4168 2005.69 27.8463C2012.25 25.1331 2019.45 23.7765 2027.3 23.7765Z" fill="#FFDCC6"/>
<defs>
<linearGradient id="paint0_linear_21_850" x1="71" y1="-1.27816e-06" x2="71" y2="144" gradientUnits="userSpaceOnUse">
<stop stop-color="#FAD57B" stop-opacity="0.9"/>
<stop offset="0.25" stop-color="#FDCF7D" stop-opacity="0.75"/>
<stop offset="0.5" stop-color="#FFC88C" stop-opacity="0.65"/>
<stop offset="0.75" stop-color="#FFC195" stop-opacity="0.65"/>
<stop offset="1" stop-color="#FDB892" stop-opacity="0.8"/>
</linearGradient>
<linearGradient id="paint1_linear_21_850" x1="71" y1="-1.27816e-06" x2="71" y2="144" gradientUnits="userSpaceOnUse">
<stop stop-color="#FAD57B" stop-opacity="0.9"/>
<stop offset="0.25" stop-color="#FDCF7D" stop-opacity="0.75"/>
<stop offset="0.5" stop-color="#FFC88C" stop-opacity="0.65"/>
<stop offset="0.75" stop-color="#FFC195" stop-opacity="0.65"/>
<stop offset="1" stop-color="#FDB892" stop-opacity="0.8"/>
</linearGradient>
<linearGradient id="paint2_linear_21_850" x1="71" y1="-1.27816e-06" x2="71" y2="144" gradientUnits="userSpaceOnUse">
<stop stop-color="#FAD57B" stop-opacity="0.9"/>
<stop offset="0.25" stop-color="#FDCF7D" stop-opacity="0.75"/>
<stop offset="0.5" stop-color="#FFC88C" stop-opacity="0.65"/>
<stop offset="0.75" stop-color="#FFC195" stop-opacity="0.65"/>
<stop offset="1" stop-color="#FDB892" stop-opacity="0.8"/>
</linearGradient>
<linearGradient id="paint3_linear_21_850" x1="71" y1="-1.27816e-06" x2="71" y2="144" gradientUnits="userSpaceOnUse">
<stop stop-color="#FAD57B" stop-opacity="0.9"/>
<stop offset="0.25" stop-color="#FDCF7D" stop-opacity="0.75"/>
<stop offset="0.5" stop-color="#FFC88C" stop-opacity="0.65"/>
<stop offset="0.75" stop-color="#FFC195" stop-opacity="0.65"/>
<stop offset="1" stop-color="#FDB892" stop-opacity="0.8"/>
</linearGradient>
<linearGradient id="paint4_linear_21_850" x1="71" y1="-1.27816e-06" x2="71" y2="144" gradientUnits="userSpaceOnUse">
<stop stop-color="#FAD57B" stop-opacity="0.9"/>
<stop offset="0.25" stop-color="#FDCF7D" stop-opacity="0.75"/>
<stop offset="0.5" stop-color="#FFC88C" stop-opacity="0.65"/>
<stop offset="0.75" stop-color="#FFC195" stop-opacity="0.65"/>
<stop offset="1" stop-color="#FDB892" stop-opacity="0.8"/>
</linearGradient>
<linearGradient id="paint5_linear_21_850" x1="71" y1="-1.27816e-06" x2="71" y2="144" gradientUnits="userSpaceOnUse">
<stop stop-color="#FAD57B" stop-opacity="0.9"/>
<stop offset="0.25" stop-color="#FDCF7D" stop-opacity="0.75"/>
<stop offset="0.5" stop-color="#FFC88C" stop-opacity="0.65"/>
<stop offset="0.75" stop-color="#FFC195" stop-opacity="0.65"/>
<stop offset="1" stop-color="#FDB892" stop-opacity="0.8"/>
</linearGradient>
</defs>
</svg>
